<?xml version="1.0" encoding="UTF-8" standalone="no"?>
<!-- Created with Inkscape (http://www.inkscape.org/) -->

<svg
   xmlns:dc="http://purl.org/dc/elements/1.1/"
   xmlns:cc="http://creativecommons.org/ns#"
   xmlns:rdf="http://www.w3.org/1999/02/22-rdf-syntax-ns#"
   xmlns:svg="http://www.w3.org/2000/svg"
   xmlns="http://www.w3.org/2000/svg"
   xmlns:sodipodi="http://sodipodi.sourceforge.net/DTD/sodipodi-0.dtd"
   xmlns:inkscape="http://www.inkscape.org/namespaces/inkscape"
   width="22.209652mm"
   height="19.843752mm"
   viewBox="0 0 22.209652 19.843752"
   version="1.1"
   id="svg8"
   inkscape:version="0.92.5 (2060ec1f9f, 2020-04-08)"
   sodipodi:docname="loader.svg">
  <defs
     id="defs2" />
  <sodipodi:namedview
     id="base"
     pagecolor="#ffffff"
     bordercolor="#666666"
     borderopacity="1.0"
     inkscape:pageopacity="0.0"
     inkscape:pageshadow="2"
     inkscape:zoom="1.979899"
     inkscape:cx="57.867389"
     inkscape:cy="14.725593"
     inkscape:document-units="mm"
     inkscape:current-layer="text833-2-6-7"
     showgrid="false"
     inkscape:window-width="1920"
     inkscape:window-height="1051"
     inkscape:window-x="1920"
     inkscape:window-y="0"
     inkscape:window-maximized="1"
     fit-margin-top="0"
     fit-margin-left="0"
     fit-margin-right="0"
     fit-margin-bottom="0" />
  <metadata
     id="metadata5">
    <rdf:RDF>
      <cc:Work
         rdf:about="">
        <dc:format>image/svg+xml</dc:format>
        <dc:type
           rdf:resource="http://purl.org/dc/dcmitype/StillImage" />
        <dc:title />
      </cc:Work>
    </rdf:RDF>
  </metadata>
  <g
     inkscape:label="Layer 1"
     inkscape:groupmode="layer"
     id="layer1"
     transform="translate(24.464288,-229.85135)">
    <g
       aria-label="hq"
       style="font-style:normal;font-weight:normal;font-size:14.80240726px;line-height:1.25;font-family:sans-serif;letter-spacing:0px;word-spacing:0px;fill:#000000;fill-opacity:1;stroke:none;stroke-width:0.37006018"
       id="text817-6-7-5">
      <path
         d="m -11.91526,233.90721 -0.162826,2.01313 0.08881,-0.20724 q 0.05921,-0.13322 0.42927,-0.6217 0,-0.0444 0.458875,-0.78453 l 0.251641,-0.29605 0.133221,-0.20723 q 0.281246,-0.22204 0.473677,-0.22204 0.3996652,-0.0592 0.8585398,0.23684 0.1036169,0.0148 0.2664434,0.22204 0.2516409,0.19243 0.2220361,0.54769 0,0.0296 -0.014802,0.0888 -0.2812458,2.30918 -0.2960482,3.24173 -0.014802,0.91775 0.1480241,1.53945 0.1184193,0.51808 -0.3848626,0.72532 -0.1332217,0.0888 -0.4144674,0.0296 -0.2516408,0 -0.3848628,-0.074 -0.118419,-0.0592 -0.251641,-0.29605 l -0.07401,-0.29605 q -0.05921,-0.11841 -0.05921,-0.32565 l -0.05921,-0.42927 q 0.0148,-0.0296 0.0148,-0.38486 l 0.0148,-0.38486 q -0.04441,-0.20724 0.0148,-0.81414 l 0.02961,-0.6365 v -0.37006 q 0.0148,-0.0444 -0.08881,-0.20723 -0.384863,0.29605 -0.85854,1.98352 l -0.384863,1.18419 q -0.266443,0.94736 -0.577294,1.02137 l -0.162826,0.0296 q -0.207234,0 -0.562491,-0.11842 -0.281246,-0.31085 -0.281246,-0.6217 0.02961,-0.0592 0.0148,-0.13322 -0.04441,-0.19243 0.02961,-0.53289 -0.0148,-0.0444 -0.0148,-0.11841 l 0.0148,-0.22204 q -0.02961,-0.074 -0.05921,-0.41447 -0.0296,-0.35526 0,-0.53288 -0.0296,-0.0592 0.08882,-0.39967 -0.118419,-0.17763 -0.133222,-0.39966 -0.05921,-0.6069 -0.04441,-0.90295 0.02961,-0.31085 0.02961,-0.5773 -0.02961,-0.26644 -0.0148,-0.6365 l 0.103617,-1.19899 0.103617,-0.85854 q 0,-0.10362 -0.07401,-0.31085 -0.05921,-0.22204 -0.02961,-0.51809 0.02961,-0.29605 0.05921,-0.37006 0.04441,-0.0888 0.118419,-0.44407 0,-0.29605 0.05921,-0.44407 l 0.08881,-0.26645 q 0.0148,-0.10361 0.384863,-0.34045 h 0.162826 q 0.577294,0.0444 0.843737,0.19243 0.11842,0.074 0.05921,0.51808 -0.02961,0.6217 -0.04441,0.76973 -0.0148,0.14802 -0.07401,1.28781 -0.05921,1.13978 -0.05921,1.28781 z"
         style="font-style:normal;font-variant:normal;font-weight:normal;font-stretch:normal;font-family:'Caveat Brush';-inkscape-font-specification:'Caveat Brush';fill:#000000;fill-opacity:1;stroke-width:0.37006018"
         id="path818" />
      <path
         d="m -4.0848057,235.53547 q 0.088814,-0.14802 0.088814,-0.28124 0,-0.14803 -0.1036168,-0.29605 -0.2960481,-0.074 -0.4884794,-0.42927 -0.014803,-0.0296 -0.2960482,-0.41447 -0.088814,-0.0888 -0.2368385,-0.0296 -0.3108506,0.42927 -0.3108506,0.53288 -0.4144674,0.85854 -0.5032818,2.04274 l -0.044407,1.11018 q 0.029605,0.54769 0.1924313,0.76972 0.1628264,0.20723 0.2516409,0.19243 0.088814,-0.0148 0.2516409,-0.28124 0.074012,-0.13322 0.3404554,-0.65131 0,-0.10362 0.1628265,-0.44407 0.2516409,-0.48848 0.4440722,-1.06577 0.014802,-0.17763 0.1332216,-0.29605 0.044407,-0.074 0.1184193,-0.45888 z m 0.2812457,6.24662 q -0.029605,-1.56906 -0.029605,-1.68748 0.014802,-0.13322 -0.1036168,-0.56249 0,-0.22203 0.074012,-0.41446 0.014802,-0.11842 0.014802,-0.68092 l -0.4588746,1.06578 q -0.05921,0.13322 -0.2072337,0.25164 -0.1332217,0.11842 -0.2368385,0.11842 -0.2220361,0 -0.7105156,-0.0888 l -0.2812457,0.0444 q -0.1924313,0.0148 -0.7105156,-0.10362 -0.2072337,0 -0.3848625,-0.19243 -0.3552578,-0.29605 -0.4292699,-0.50328 l -0.029605,-0.32565 q -0.1628265,-0.0888 -0.088814,-0.56249 -0.044407,-0.14803 -0.014802,-0.22204 0.044407,-0.0888 0.044407,-0.23684 l 0.014802,-0.16282 q 0,-0.47368 0.014802,-0.81414 0.044407,-0.0888 0.029605,-0.41446 l 0.05921,-0.78453 q 0.1184192,-0.31085 0.1184192,-0.6217 l 0.1924313,-0.5773 q 0,0.0888 0.044407,-0.0444 0.044407,-0.13323 0.1776289,-0.32566 -0.029605,-0.0296 0.1776289,-0.28124 0.2072337,-0.25164 0.2812457,-0.31085 0.029605,0 0.2960482,-0.20724 0.2368385,-0.13322 0.9621565,-0.16282 0.5180842,0 0.9621564,0.31085 0.2072337,0.19243 0.3700602,0.42927 0.014802,-0.0148 0.1184193,-0.28125 0.1184192,-0.11842 0.7253179,0.0148 l 0.399665,0.19243 q 0.1628265,0.0888 0.1480241,0.38487 -0.1036169,0.71051 -0.1036169,1.40623 l 0.014803,0.60689 q 0,0.0888 -0.014803,0.48848 0.014803,0.0444 0.014803,0.17763 0,0.11842 0.014802,0.16283 v 0.42927 q 0,0.32565 -0.014802,0.42927 0.014802,0.0888 0.014802,0.29605 0.074012,1.19899 0.029605,1.68747 v 0.0888 q 0,0.29604 -0.014802,0.44407 l 0.05921,0.90294 v 1.02137 q 0.05921,0.6069 -0.2516409,0.79933 -0.2664434,0.11842 -0.5624915,0.13322 -0.2960481,0.0296 -0.6661083,-0.25164 l -0.1036169,-0.35526 q 0.014802,-0.10361 0,-0.31085 -0.014802,-0.19243 0.044407,-0.39966 z"
         style="font-style:normal;font-variant:normal;font-weight:normal;font-stretch:normal;font-family:'Caveat Brush';-inkscape-font-specification:'Caveat Brush';fill:#000000;fill-opacity:1;stroke-width:0.37006018"
         id="path820" />
    </g>
    <g
       aria-label="nv"
       style="font-style:normal;font-weight:normal;font-size:18.06114006px;line-height:1.25;font-family:sans-serif;letter-spacing:0px;word-spacing:0px;fill:#000000;fill-opacity:1;stroke:none;stroke-width:0.45152855"
       id="text829-5-6-8">
      <path
         d="m -13.890371,248.21244 -0.108367,-0.30703 -0.198673,-1.2101 q -0.09031,-0.34316 -0.09031,-0.61408 l 0.07225,-0.79469 q 0,-0.19867 0.01806,-0.21673 -0.216734,0 -0.650201,0.52377 -0.03612,0.0542 -0.108367,0.18061 -0.758568,1.2101 -0.903057,2.90784 -0.144489,0.30704 -0.379284,0.30704 -0.48765,-0.10836 -0.541834,-0.10836 l -0.126428,0.0181 h -0.234795 q -0.415406,-0.0361 -0.541834,-0.3251 -0.07224,-0.0903 -0.07224,-0.46959 v -0.25286 l -0.05418,-0.99336 v -1.48101 q 0,-0.25286 -0.03612,-0.63214 -0.03612,-0.41541 -0.01806,-1.30041 0.01806,-0.90305 -0.01806,-0.95724 -0.03612,-0.0722 -0.03612,-0.18061 0,-0.10837 0.05418,-0.21673 0.05418,-0.10837 0.48765,-0.2348 0.234795,-0.14449 0.397346,-0.14449 0.252856,0.0542 0.650201,0.21674 0.270917,0.0542 0.270917,0.52377 0.03612,0.77663 0,1.11979 -0.01806,0.34316 0.01806,1.39071 1.336524,-2.56468 2.38407,-3.08846 0.09031,-0.0903 0.270917,-0.0903 0.180612,0 0.415407,0.18061 0.234794,0.18061 0.3251,0.23479 0.09031,0.0542 0.198673,0.18062 0.126428,0.12642 0.198672,0.16255 0.216734,0.36122 0.09031,1.69774 -0.01806,0.19868 -0.03612,0.36123 -0.01806,0.14449 -0.01806,0.6502 0,0.50571 0.01806,0.70438 0.05418,0.63214 0.05418,0.74051 l 0.09031,0.68632 q 0.180611,0.41541 0.180611,0.6502 0.01806,0.21674 0.325101,0.70439 0.126428,0.27091 -0.108367,0.43347 -0.361223,0.18061 -0.397345,0.14448 -0.01806,-0.0181 -0.198673,0.0361 -0.180611,0.0722 -0.650201,0.0361 -0.234795,-0.0542 -0.469589,-0.28898 l -0.270918,-0.27092 q -0.144489,-0.21673 -0.198672,-0.46959 -0.09031,-0.0903 -0.05418,-0.14449 z"
         style="font-style:normal;font-variant:normal;font-weight:normal;font-stretch:normal;font-family:'Caveat Brush';-inkscape-font-specification:'Caveat Brush';fill:#000000;fill-opacity:1;stroke-width:0.45152855"
         id="path823" />
      <path
         d="m -9.7544002,240.87962 0.8308125,0.0542 q 0.090306,0 0.4334673,0.18061 l 0.036122,0.27091 q 0.090306,0.19868 0.090306,0.34317 0,0.14448 0.036122,0.36122 0.1806114,0.48765 0.2889782,1.24622 0.126428,0.75856 0.1806114,1.04754 0.054183,0.28898 0.090306,0.46959 0.036122,0.18061 -0.018061,0.28898 0.054183,0.0542 0.1083668,0.30704 0.054183,0.25286 0.126428,0.34316 l 0.4334674,1.89642 q 0.054183,0.3251 0.2167336,0.36122 l 0.1625503,-0.18061 q 0.090306,-0.10836 0.1806114,-0.46959 0.090306,-0.36122 0.090306,-0.66826 0,-0.30704 0.054183,-0.52377 l 0.2347948,-1.78805 q 0.036122,-0.37929 0,-0.74051 v -0.52377 l 0.018061,-0.43347 v -0.46959 q 0,-0.16255 0.1444891,-0.34316 l 0.036122,-0.25286 q 0.036122,-0.30704 0.3973451,-0.3251 0.5418342,0.0903 0.8488736,0.27092 0.2167336,0.16255 0.397345,0.39734 v 0.30704 q 0.072245,0.79469 -0.036122,1.49908 l -0.1083669,0.66826 q -0.1986725,0.68632 -0.2167337,1.19203 -0.4876508,2.05897 -0.4876508,2.1854 0,0.2348 -0.1444891,0.43347 0,0.0542 -0.090306,0.28898 -0.054183,0.39734 -0.1625502,0.50571 0,0.0181 -0.1444892,0.19867 -0.1444891,0.19867 -0.1806114,0.2348 -1.1559129,0.18061 -1.3726466,0.18061 -0.1986725,0.0181 -0.5779565,-0.16255 -0.7405067,-0.36122 -0.9572404,-1.04755 -0.054183,-0.23479 -0.1986725,-0.37928 -0.1444892,-0.16255 -0.1806114,-0.30704 -0.018061,-0.14449 -0.054183,-0.25286 -0.036122,-0.12643 -0.072245,-0.23479 -0.090306,-0.28898 -0.1806114,-0.50571 0,0.0722 -0.018061,0.0181 -0.018061,-0.0542 -0.036122,-0.0903 0,-0.0542 -0.036122,-0.18061 -0.036122,-0.12643 -0.036122,-0.27092 -0.7224458,-3.84702 -0.7405068,-3.97345 -0.01806,-0.12643 -0.01806,-0.39734 v -0.41541 q 0,-0.25286 0.216734,-0.50571 h -0.01806 q 0.05418,-0.0903 0.4334678,-0.10837 z"
         style="font-style:normal;font-variant:normal;font-weight:normal;font-stretch:normal;font-family:'Caveat Brush';-inkscape-font-specification:'Caveat Brush';fill:#000000;fill-opacity:1;stroke-width:0.45152855"
         id="path825" />
    </g>
    <g
       aria-label="#"
       transform="scale(0.99342088,1.0066227)"
       style="font-style:normal;font-weight:normal;font-size:15.26549339px;line-height:1.25;font-family:sans-serif;letter-spacing:0px;word-spacing:0px;fill:#000000;fill-opacity:1;stroke:none;stroke-width:0.38163731"
       id="text833-2-6-7">
      <path
         d="m -21.112699,234.76266 q 0.686947,-0.0916 0.717478,-0.10686 0.0458,-0.0305 0.09159,-0.0458 0.137389,-0.0305 0.366372,-0.16792 0.07633,-0.0153 0.198451,-0.0763 0.122124,-0.0611 0.30531,-0.10685 0.198451,-0.0458 0.274779,-0.0916 0.07633,-0.0458 0.30531,-0.12212 0.03053,-0.0305 0.152655,-0.3969 0.122124,-0.38164 0.152655,-0.4427 l -0.13739,-0.0916 q -0.213717,0 -0.885398,0.12213 -0.09159,0.0458 -1.05332,0.19845 -0.320575,0.73274 -0.320575,0.85487 0,0.12212 -0.16792,0.47323 z m -3.465267,0.8854 q 0,-0.12213 0.183186,-0.18319 0,-0.0305 0.213717,-0.0916 0.702212,-0.15266 0.717478,-0.19845 0.06106,-0.0305 0.900664,-0.25952 0.122124,-0.0458 0.16792,-0.12212 0.06106,-0.0763 0.259514,-0.51903 0.106858,-0.12212 0.106858,-0.22898 0.01527,-0.10686 -0.06106,-0.10686 -0.06106,0 -0.641151,0.15266 -0.580088,0.13739 -1.08385,0.13739 -0.503761,0 -0.564823,-0.30531 -0.07633,-0.0611 -0.07633,-0.25952 0,-0.21371 0.07633,-0.29004 0.07633,-0.0763 0.442699,-0.12213 l 1.038054,-0.25951 q 0.77854,-0.29004 0.946461,-0.36637 0.16792,-0.0916 0.198451,-0.10686 0.0458,-0.0153 0.137389,-0.0611 0.106859,-0.0458 0.213717,-0.0916 0.01527,-0.0763 0.228983,-0.71748 0.213717,-0.64115 0.274779,-0.85487 0.06106,-0.12212 0.183186,-0.21372 0.351106,-0.97699 0.366371,-0.99225 0.03053,-0.0305 0.13739,-0.29005 0.152655,-0.45796 0.427434,-0.56482 0.228982,0 0.351106,0.10686 0.106858,0.0611 0.290044,0.25951 0.183186,0.19845 0.167921,0.32057 0,0.10686 -0.259514,0.45797 -0.0458,0.13739 -0.137389,0.42743 -0.09159,0.27478 -0.13739,0.36638 -0.06106,0.15265 -0.213716,0.70221 -0.335841,0.48849 -0.335841,0.70221 0.06106,0.0305 0.244248,0 0.198451,-0.0305 0.228982,-0.0763 0.07633,0 0.228982,-0.10686 0.06106,0 0.13739,-0.0458 0.09159,-0.0611 0.106858,-0.0916 0.259514,-0.0458 0.274779,-0.0611 0.702213,-0.0916 0.824337,-0.41217 0,-0.24424 0.122124,-0.48849 0.122124,-0.24425 0.106858,-0.29005 0,-0.0458 0.09159,-0.38163 0.152655,-0.41217 0.183186,-0.58009 0.0458,-0.16792 0.122124,-0.21372 0.09159,-0.15265 0.09159,-0.24425 0.06106,-0.15265 0.198451,-0.24424 0.366372,-0.18319 0.625886,0 0.122124,0.0611 0.290044,0.21371 0.07633,0 0.320575,0.19845 l 0.167921,0.35111 q -0.03053,0.0305 -0.07633,0.13739 -0.03053,0.10686 -0.06106,0.16792 -0.03053,0.0458 -0.16792,0.38164 -0.30531,0.80907 -0.244248,0.82433 l 0.77854,-0.13738 0.228983,0.0916 q 0.625885,0.25951 0.717478,0.97699 0.07633,0.21372 -0.07633,0.29004 -0.09159,-0.10685 -0.732743,0.0305 l -1.587612,0.25951 q -0.33584,1.2823 -0.320575,1.29757 0.656416,0 1.099116,-0.0305 0.320575,-0.0611 0.717478,0.19846 0.198451,0.19845 0.244248,0.56482 0.0458,0.36637 -0.06106,0.58009 -0.351107,0 -1.007523,0.15265 -1.129646,0.12213 -1.282301,0.12213 -0.152655,0 -0.167921,0.0305 0,0.0153 -0.457965,1.54181 -0.274778,1.26704 -0.305309,1.51129 -0.03053,0.22898 -0.07633,0.33584 -0.0458,0.10686 -0.213717,0.10686 -0.152655,0 -0.366372,-0.0458 -0.198451,-0.0305 -0.335841,-0.0763 -0.137389,-0.0458 -0.137389,-0.0763 0,-0.0305 -0.213717,-0.10685 0,-0.0153 -0.122124,-0.38164 -0.01527,-0.0611 0.01527,-0.35111 -0.03053,-0.47323 0.122124,-0.85487 0.122124,-0.0305 0.122124,-0.30531 0.06106,-0.3511 0.122123,-0.47323 0.06106,-0.13739 0.0458,-0.29004 -0.01527,-0.15266 -0.106858,-0.15266 -0.09159,0 -0.427434,0.0916 -0.320576,0.0916 -0.580089,0.15265 -0.595354,0.13739 -0.671682,0.13739 -0.198451,0.0305 -0.259513,0.0916 -0.0458,0.0458 -0.09159,0.27477 -0.0458,0.22899 -0.152655,0.56483 0,0.0611 -0.09159,0.3969 -0.09159,0.53429 -0.274779,0.91593 l -0.03053,0.21372 q 0,0.0305 -0.0458,0.10686 -0.03053,0.0763 -0.07633,0.15265 -0.0458,0.0916 -0.16792,0.0916 -0.106859,0 -0.259514,-0.0611 -0.137389,-0.0458 -0.244248,-0.0153 -0.01526,-0.0153 -0.06106,-0.0305 -0.13739,-0.0763 -0.259514,-0.19845 -0.0458,0 -0.16792,-0.15265 -0.213717,-0.22898 -0.01527,-0.74801 0.13739,-0.42743 0.122124,-0.50376 0.03053,-0.0763 0.198452,-0.68695 0.03053,-0.0305 -0.427434,0.0458 -0.457965,0.0763 -0.473231,0.0763 -0.213716,0 -0.427433,-0.38163 -0.13739,-0.27478 -0.13739,-0.36637 -0.01526,-0.0916 0.06106,-0.21372 z"
         style="font-style:normal;font-variant:normal;font-weight:normal;font-stretch:normal;font-family:'Caveat Brush';-inkscape-font-specification:'Caveat Brush';fill:#000000;fill-opacity:1;stroke-width:0.38163731"
         id="path828" />
    </g>
  </g>
</svg>
