<?xml version="1.0" encoding="UTF-8" standalone="no"?>
<!-- Created with Inkscape (http://www.inkscape.org/) -->

<svg
   xmlns:dc="http://purl.org/dc/elements/1.1/"
   xmlns:cc="http://creativecommons.org/ns#"
   xmlns:rdf="http://www.w3.org/1999/02/22-rdf-syntax-ns#"
   xmlns:svg="http://www.w3.org/2000/svg"
   xmlns="http://www.w3.org/2000/svg"
   xmlns:sodipodi="http://sodipodi.sourceforge.net/DTD/sodipodi-0.dtd"
   xmlns:inkscape="http://www.inkscape.org/namespaces/inkscape"
   width="34.772663mm"
   height="11.906257mm"
   viewBox="0 0 34.772664 11.906257"
   version="1.1"
   id="svg8"
   inkscape:version="0.92.5 (2060ec1f9f, 2020-04-08)"
   sodipodi:docname="Logo_1.svg">
  <defs
     id="defs2" />
  <sodipodi:namedview
     id="base"
     pagecolor="#ffffff"
     bordercolor="#666666"
     borderopacity="1.0"
     inkscape:pageopacity="0.0"
     inkscape:pageshadow="2"
     inkscape:zoom="5.6"
     inkscape:cx="23.972349"
     inkscape:cy="12.345113"
     inkscape:document-units="mm"
     inkscape:current-layer="text833-2-6"
     showgrid="false"
     fit-margin-top="0"
     fit-margin-left="0"
     fit-margin-right="0"
     fit-margin-bottom="0"
     inkscape:window-width="1920"
     inkscape:window-height="1051"
     inkscape:window-x="1920"
     inkscape:window-y="0"
     inkscape:window-maximized="1" />
  <metadata
     id="metadata5">
    <rdf:RDF>
      <cc:Work
         rdf:about="">
        <dc:format>image/svg+xml</dc:format>
        <dc:type
           rdf:resource="http://purl.org/dc/dcmitype/StillImage" />
        <dc:title></dc:title>
      </cc:Work>
    </rdf:RDF>
  </metadata>
  <g
     inkscape:label="Layer 1"
     inkscape:groupmode="layer"
     id="layer1"
     transform="translate(-61.229183,-123.1231)">
    <g
       aria-label="#"
       transform="scale(0.99342088,1.0066227)"
       style="font-style:normal;font-weight:normal;font-size:48.1789856px;line-height:1.25;font-family:sans-serif;letter-spacing:0px;word-spacing:0px;fill:#000000;fill-opacity:1;stroke:none;stroke-width:1.20447457"
       id="text833-2-6-7">
      <g
         id="g840-3-2"
         transform="matrix(0.66518954,0,0,0.65646561,7.1208961,35.53266)"
         style="fill:#000000"
         inkscape:export-xdpi="273.86154"
         inkscape:export-ydpi="273.86154">
        <g
           aria-label="#"
           transform="scale(0.99342088,1.0066227)"
           style="font-style:normal;font-weight:normal;font-size:14.44039536px;line-height:1.25;font-family:sans-serif;letter-spacing:0px;word-spacing:0px;fill:#000000;fill-opacity:1;stroke:none;stroke-width:0.36100987"
           id="text833-2-6">
          <g
             id="g1038"
             style="fill:#ffffff">
            <g
               id="text817-6-7"
               style="font-style:normal;font-weight:normal;font-size:14.00233936px;line-height:1.25;font-family:sans-serif;letter-spacing:0px;word-spacing:0px;fill:#ffffff;fill-opacity:1;stroke:none;stroke-width:0.35005847"
               aria-label="historias"
               transform="matrix(1.0066227,0,0,0.99342085,-1.6427119e-6,1.0625313e-6)">
              <path
                 id="path949"
                 style="font-style:normal;font-variant:normal;font-weight:normal;font-stretch:normal;font-family:'Caveat Brush';-inkscape-font-specification:'Caveat Brush';fill:#ffffff;fill-opacity:1;stroke-width:0.35005847"
                 d="m 93.664408,136.03002 -0.154026,1.90432 0.08401,-0.19604 q 0.05601,-0.12602 0.406068,-0.58809 0,-0.042 0.434072,-0.74213 l 0.23804,-0.28004 0.126021,-0.19604 q 0.266044,-0.21003 0.448075,-0.21003 0.378063,-0.056 0.812136,0.22403 0.09802,0.014 0.252042,0.21004 0.238039,0.18203 0.210035,0.51809 0,0.028 -0.014,0.084 -0.266044,2.18437 -0.280046,3.06651 -0.014,0.86815 0.140023,1.45625 0.112019,0.49008 -0.364061,0.68611 -0.126021,0.084 -0.392065,0.028 -0.23804,0 -0.364061,-0.07 -0.112019,-0.056 -0.23804,-0.28004 l -0.07001,-0.28005 q -0.05601,-0.11202 -0.05601,-0.30805 l -0.05601,-0.40607 q 0.014,-0.028 0.014,-0.36406 l 0.014,-0.36406 q -0.04201,-0.19603 0.014,-0.77013 l 0.028,-0.6021 v -0.35006 q 0.014,-0.042 -0.08401,-0.19603 -0.36406,0.28005 -0.812135,1.87631 l -0.364061,1.12019 q -0.252042,0.89615 -0.546091,0.96616 l -0.154026,0.028 q -0.196033,0 -0.532089,-0.11202 -0.266044,-0.29405 -0.266044,-0.5881 0.028,-0.056 0.014,-0.12602 -0.04201,-0.18203 0.02801,-0.50409 -0.014,-0.042 -0.014,-0.11202 l 0.014,-0.21003 q -0.02801,-0.07 -0.05601,-0.39207 -0.028,-0.33605 0,-0.50408 -0.028,-0.056 0.08401,-0.37806 -0.112018,-0.16803 -0.126021,-0.37807 -0.05601,-0.57409 -0.04201,-0.85414 0.028,-0.29405 0.028,-0.54609 -0.028,-0.25204 -0.014,-0.6021 l 0.09802,-1.13419 0.09802,-0.81214 q 0,-0.098 -0.07001,-0.29405 -0.05601,-0.21003 -0.02801,-0.49008 0.02801,-0.28004 0.05601,-0.35006 0.04201,-0.084 0.112019,-0.42007 0,-0.28004 0.05601,-0.42007 l 0.08401,-0.25204 q 0.014,-0.098 0.364061,-0.32205 h 0.154026 q 0.546091,0.042 0.798133,0.18203 0.112019,0.07 0.05601,0.49008 -0.02801,0.5881 -0.04201,0.72812 -0.014,0.14003 -0.07001,1.21821 -0.05601,1.07818 -0.05601,1.2182 z"
                 inkscape:connector-curvature="0" />
              <path
                 id="path951"
                 style="font-style:normal;font-variant:normal;font-weight:normal;font-stretch:normal;font-family:'Caveat Brush';-inkscape-font-specification:'Caveat Brush';fill:#ffffff;fill-opacity:1;stroke-width:0.35005847"
                 d="m 98.705231,132.69746 q 0.938157,0 1.316219,0.37807 0,0.23803 -0.322053,0.96616 -0.05601,0.23804 -0.18203,0.37806 l -0.18203,0.18203 q -0.07001,0.042 -0.140024,0.042 -0.504084,0.12602 -0.784131,-0.19604 -0.05601,-0.084 -0.140023,-0.12602 -0.07001,-0.042 -0.112019,-0.25204 -0.126021,-0.18203 -0.126021,-0.28005 -0.028,-0.86814 0.630105,-1.09218 z m -0.112018,3.30455 q 0.140023,-0.07 0.65811,0.14003 0.05601,0.056 0.168028,0.11202 l 0.224037,0.18203 q 0.05601,0.056 0.05601,0.18203 v 1.2322 q 0,0.28005 -0.028,0.50409 v 0.084 q -0.04201,0.5741 0.07001,2.59043 0.04201,0.39207 -0.18203,0.47608 -0.23804,0 -0.308051,-0.07 -0.05601,-0.028 -0.09802,-0.028 h -0.09802 l -0.08401,0.028 q -0.04201,0 -0.154026,-0.056 -0.112019,-0.07 -0.154026,-0.14002 -0.028,-0.07 -0.112018,-0.084 -0.154026,-0.056 -0.168028,-0.21003 -0.196033,-0.37806 -0.210036,-0.44808 0,-0.07 -0.04201,-0.15402 l -0.07001,-1.2182 q 0,-0.21004 0.028,-0.32206 v -0.33605 q 0.014,-0.15403 0.028,-0.5601 0.014,-0.42007 0.04201,-0.67211 -0.028,-0.36406 -0.028,-0.49008 0,-0.12602 0.014,-0.18203 -0.154026,-0.15403 0.014,-0.42007 0.182031,-0.14003 0.350059,-0.14003 z"
                 inkscape:connector-curvature="0" />
              <path
                 id="path953"
                 style="font-style:normal;font-variant:normal;font-weight:normal;font-stretch:normal;font-family:'Caveat Brush';-inkscape-font-specification:'Caveat Brush';fill:#ffffff;fill-opacity:1;stroke-width:0.35005847"
                 d="m 101.12763,137.48626 q -0.014,-0.16803 0.014,-0.64411 l 0.098,-0.47608 0.28005,-0.6021 0.22404,-0.28004 q 0,-0.11202 0.72812,-0.30805 h 0.014 q 0.15403,-0.014 0.47608,0.028 0.33606,0.042 0.64411,0.28005 0.30805,0.22403 0.42007,0.37806 0.29405,0.5881 0.25204,1.09218 0,0.14003 -0.14002,0.33606 -0.014,0.028 -0.21004,0.084 -0.19603,0.056 -0.32205,0.014 -0.12602,-0.056 -0.29405,-0.16803 -0.16803,-0.11202 -0.15402,-0.35006 -0.12603,-0.14002 -0.056,-0.36406 0.028,-0.16803 -0.042,-0.25204 l -0.16803,-0.07 q -0.084,0.028 -0.16803,0.25205 -0.07,0.22403 -0.07,0.54609 0,0.5881 0.29405,1.06418 0.098,0.15402 0.33606,0.36406 l 0.25204,0.30805 0.36406,0.33605 0.26604,0.36406 q 0.098,0.098 0.26605,0.43408 0.18203,0.32205 0.18203,0.5881 0,0.25204 -0.15403,0.6441 l -0.12602,0.18203 q 0,0.028 -0.15402,0.18203 -0.42007,0.42007 -0.91016,0.51809 h -0.098 q -0.44808,0.056 -0.88215,-0.014 l -0.43407,-0.11202 q -0.07,0 -0.15403,-0.056 -0.084,-0.042 -0.15402,-0.07 -0.32206,-0.21004 -0.39207,-0.33606 -0.07,-0.042 -0.098,-0.39206 -0.098,-0.21004 0.042,-0.5741 0,-0.21003 0.042,-0.32205 0.26604,-0.30805 0.68611,-0.14003 0.14003,0.056 0.14003,0.22404 0,0.042 0.042,0.29405 0.056,0.23804 0.16803,0.44808 0.11202,0.21003 0.30805,0.21003 0.19604,0 0.40607,-0.15403 0.22404,-0.43407 0.22404,-0.47608 l 0.028,-0.19603 q 0.028,-0.21003 -0.12602,-0.43407 -0.042,-0.16803 -0.19603,-0.33606 l -0.21004,-0.30805 -0.21003,-0.19603 q -0.056,-0.014 -0.35006,-0.22404 -0.014,-0.042 -0.15403,-0.19603 -0.14002,-0.15403 -0.26604,-0.37806 -0.12602,-0.23804 -0.32205,-0.42007 -0.014,-0.098 -0.18203,-0.32206 z"
                 inkscape:connector-curvature="0" />
              <path
                 id="path955"
                 style="font-style:normal;font-variant:normal;font-weight:normal;font-stretch:normal;font-family:'Caveat Brush';-inkscape-font-specification:'Caveat Brush';fill:#ffffff;fill-opacity:1;stroke-width:0.35005847"
                 d="m 105.2023,135.98801 q -0.042,-0.21003 -0.056,-0.23804 -0.07,-0.14002 -0.07,-0.25204 0,-0.11202 -0.014,-0.11202 0.028,-0.32205 0.25204,-0.47608 0.22403,-0.16803 0.6301,-0.084 l 0.44808,0.16803 0.64411,0.15402 0.32205,-0.92415 q 0.12602,-0.22404 0.12602,-0.30805 0.014,-0.084 0.056,-0.18203 0.056,-0.19604 0.11202,-0.29405 l 0.056,-0.22404 q 0.098,-0.18203 0.39206,-0.23804 0.16803,-0.07 0.29405,0 0.37807,0.014 0.5741,0.28005 0,0.07 -0.042,0.22403 -0.042,0.15403 -0.07,0.40607 l -0.35006,1.40023 h 0.11202 l 0.35006,-0.014 q 0.07,0.014 0.15402,0.014 0.30806,-0.07 0.47608,-0.084 0.16803,-0.028 0.22404,-0.042 0.042,0.014 0.23804,0 0.19603,-0.014 0.40607,0.12602 0.21003,0.12603 0.21003,0.32206 0,0.18203 -0.26604,0.32205 l -0.12602,0.16803 q -0.22404,0.084 -0.39207,0.19603 -0.19603,0.11202 -1.61027,0.37807 l -0.098,0.71412 q 0.028,0.07 0.028,0.11201 -0.098,0.6021 -0.16803,1.49825 0.014,0.32206 0.014,0.43408 v 0.37806 q -0.014,0.028 -0.014,0.18203 0,0.35006 0.084,0.82614 0.084,0.46208 0.098,0.56009 0.014,0.098 0.014,0.22404 -0.014,0.23804 -0.19604,0.30805 -0.44807,0 -0.75612,-0.15402 -0.25204,-0.042 -0.22404,-0.11202 -0.098,-0.07 -0.22404,-0.26605 0,-0.11202 -0.014,-0.12602 -0.098,-0.042 -0.098,-0.22404 -0.014,-0.014 -0.028,-0.098 l -0.098,-0.35006 q -0.12602,-0.16803 -0.084,-0.44808 0,-0.056 -0.042,-0.14002 v -0.098 q 0,-0.11201 0.014,-0.16802 -0.07,-0.39207 0.014,-0.92416 0.084,-0.54609 0.11202,-0.78413 -0.028,-0.07 0.028,-0.18203 0,-0.12602 0.056,-0.39207 l 0.12602,-0.79813 q -0.084,-0.028 -0.16803,-0.028 -0.74212,-0.16803 -0.77013,-0.21004 l -0.16802,-0.098 q -0.098,0 -0.28005,-0.098 -0.18203,-0.11202 -0.23804,-0.22404 z"
                 inkscape:connector-curvature="0" />
              <path
                 id="path957"
                 style="font-style:normal;font-variant:normal;font-weight:normal;font-stretch:normal;font-family:'Caveat Brush';-inkscape-font-specification:'Caveat Brush';fill:#ffffff;fill-opacity:1;stroke-width:0.35005847"
                 d="m 113.61768,138.08836 -0.07,-0.36406 q 0,-0.042 -0.028,-0.098 -0.014,-0.056 -0.042,-0.21004 -0.11202,-0.084 -0.15403,-0.12602 l -0.07,-0.11202 -0.042,-0.12602 q -0.07,-0.042 -0.084,-0.11202 0,-0.084 -0.056,-0.12602 -0.042,-0.056 -0.07,-0.098 -0.028,-0.056 -0.056,-0.07 -0.12602,-0.084 -0.33606,-0.014 -0.21003,0.07 -0.25204,0.19603 -0.23804,0.53209 -0.23804,0.68612 -0.19603,0.67211 -0.11202,0.95216 -0.028,0.44807 0.11202,1.2322 v 0.15403 q 0.12602,0.16803 0.23804,0.44807 0.14002,0.18203 0.18203,0.26605 0.056,0.07 0.07,0.084 0.14002,0.098 0.16803,0.14002 0.11202,-0.056 0.15403,-0.084 v -0.098 q 0.07,-0.056 0.12602,-0.084 -0.014,0 0.098,-0.098 l 0.07,-0.07 q 0.21004,-0.44807 0.21004,-0.46208 0,-0.028 -0.014,-0.098 -0.056,-0.12602 0.07,-0.19603 0,0 0.16803,-0.49009 v -0.084 q 0.028,-0.084 -0.028,-0.12602 v -0.098 q 0.028,-0.056 0.028,-0.11202 0.056,-0.22403 0.042,-0.26604 0,-0.042 0.014,-0.098 0.014,-0.07 0.042,-0.098 0.042,-0.056 -0.14002,-0.14003 z m -1.98833,-2.64644 q 0.12602,0 0.18203,-0.028 0.07,-0.042 0.23804,-0.098 0.18203,-0.056 0.84014,0 0.36406,0.07 0.81213,0.36406 0.46208,0.22404 0.74213,0.6161 0.39206,1.03618 0.43407,1.8063 0.028,1.1762 -0.22404,1.94633 -0.35006,0.88215 -0.46207,1.03617 -0.028,0.18203 -0.22404,0.47608 -0.07,0 -0.11202,0.014 0,0.014 -0.084,0.084 -0.07,0.084 -0.21004,0.084 -0.18203,0.042 -0.22404,0.07 -0.028,0.042 -0.14002,0.042 l -0.35006,0.028 h -0.37806 q -0.37806,0 -0.6021,-0.098 l -0.42007,-0.28005 -0.14003,-0.16802 q -0.042,0 -0.056,-0.028 0,-0.042 -0.014,-0.07 -0.12602,-0.098 -0.12602,-0.22404 -0.15402,-0.23804 -0.15402,-0.33605 0,-0.098 -0.042,-0.14003 0,-0.21003 -0.12602,-0.6161 l -0.028,-0.19603 v -0.15403 q -0.014,-0.21003 -0.11202,-0.49008 0.028,-0.028 0,-0.15403 0,-0.32205 0.014,-0.43407 l -0.042,-0.18203 q 0.042,-0.084 0.028,-0.15403 0,-0.07 0.042,-0.21003 v -0.098 l 0.056,-0.49008 q 0,-0.098 0.028,-0.15402 v -0.098 q 0.028,0 0.042,-0.14002 l 0.07,-0.11202 0.014,-0.11202 q 0,-0.042 -0.014,-0.084 l 0.07,-0.21003 q 0,-0.028 0.098,-0.16803 0,-0.07 0.098,-0.21003 0,-0.07 0.07,-0.16803 0,-0.12602 0.15403,-0.32206 0.14002,-0.14002 0.25204,-0.14002 z"
                 inkscape:connector-curvature="0" />
              <path
                 id="path959"
                 style="font-style:normal;font-variant:normal;font-weight:normal;font-stretch:normal;font-family:'Caveat Brush';-inkscape-font-specification:'Caveat Brush';fill:#ffffff;fill-opacity:1;stroke-width:0.35005847"
                 d="m 116.19409,137.34624 q 0,-0.12602 -0.028,-0.29405 v -0.098 q 0.014,-0.098 -0.014,-0.21003 0,-0.14003 0.028,-0.25204 0,-0.28005 0.07,-0.36406 0,-0.07 0.19604,-0.32206 0.056,-0.056 0.21003,-0.18203 0.22404,-0.07 0.30805,-0.084 0.056,-0.056 0.37807,0.042 0.14002,0.014 0.43407,0.098 0.098,0.028 0.25204,0.22404 -0.028,0.056 -0.098,0.42007 -0.056,0.35006 -0.042,0.57409 0.084,-0.07 0.29405,-0.29405 0.21003,-0.22403 0.22403,-0.23804 0.36407,-0.16802 0.71412,-0.23803 0.50409,-0.042 0.65811,0.07 0.12602,0.042 0.19604,0.12602 0.12602,0.11202 0.21003,0.39206 0.084,0.26605 -0.014,0.33606 -0.084,0.07 -0.56009,0.11202 -0.028,0 -0.19604,0.11202 l -0.72812,0.57409 q -0.22404,0.11202 -0.30805,0.19604 l -0.26604,0.49008 q -0.014,0.028 -0.028,0.36406 -0.014,0.33605 0,0.49008 0.014,0.14002 0,0.93816 v 0.6021 q 0,0.49008 -0.014,0.56009 -0.014,0.084 -0.11202,0.28005 -0.042,0.07 -0.26604,0.07 -0.5461,0.40607 -0.70012,-0.042 l -0.18203,-0.11202 q -0.11202,-0.056 -0.14003,-0.14002 -0.11201,-0.15403 -0.11201,-0.18203 l -0.056,-0.19603 -0.084,-0.16803 q -0.042,-0.014 -0.07,-0.53209 -0.028,-0.53209 -0.028,-0.64411 0,-0.12602 -0.028,-0.26604 0.098,-0.098 0.084,-0.33606 0,-0.23804 -0.028,-0.36406 -0.028,-0.14002 0,-0.16803 0.028,-0.042 -0.014,-0.39206 -0.042,-0.056 -0.014,-0.21004 z"
                 inkscape:connector-curvature="0" />
              <path
                 id="path961"
                 style="font-style:normal;font-variant:normal;font-weight:normal;font-stretch:normal;font-family:'Caveat Brush';-inkscape-font-specification:'Caveat Brush';fill:#ffffff;fill-opacity:1;stroke-width:0.35005847"
                 d="m 122.70515,133.5516 h 0.042 q 0.49008,0.028 0.6301,0.29405 0.15403,0.25205 0.11202,0.49009 -0.028,0.23804 -0.37806,0.58809 -0.33606,0.35006 -0.61611,0.33606 -0.084,0 -0.33605,-0.084 -0.23804,-0.084 -0.25205,-0.098 -0.014,-0.056 -0.084,-0.084 -0.36406,-0.14003 -0.40607,-0.71412 0,-0.056 0.084,-0.084 -0.056,0 -0.014,-0.16803 0.098,-0.30805 0.43408,-0.40606 0.43407,-0.084 0.78413,-0.07 z m -0.028,3.5426 -0.23804,2.33839 q 0,0.084 0,0.16803 0,0.07 0.014,0.12602 -0.014,0.056 -0.014,0.14002 v 1.00817 q 0.056,0.47608 0,0.56009 -0.084,0.028 -0.19603,0.084 -0.11202,0.07 -0.43407,0.028 -0.30805,-0.028 -0.44808,-0.098 l -0.16802,-0.042 q -0.14003,0 -0.18203,-0.12602 -0.18204,-0.11202 -0.19604,-0.29405 -0.042,-0.07 0.098,-0.19604 -0.014,-0.07 -0.056,-0.19603 -0.042,-0.14002 -0.028,-0.25204 0.042,-0.07 -0.042,-0.21004 0,-0.15402 0.042,-0.35005 0.056,-0.056 0.028,-0.40607 0.098,-0.14003 0.098,-0.39207 -0.056,-0.22404 0.042,-0.44807 0.098,-0.22404 0.11202,-0.44808 0.028,-0.35006 0.12602,-0.68611 0,-0.14003 0.12602,-0.44808 0.14003,-0.30805 0.18203,-0.36406 l 0.22404,-0.22404 0.25204,-0.098 h 0.014 q 0.16802,-0.056 0.33605,0.014 0.40607,0.15403 0.49008,0.23804 -0.056,0.056 -0.07,0.16803 -0.014,0.11202 -0.028,0.19603 -0.056,0.07 -0.084,0.21004 z"
                 inkscape:connector-curvature="0" />
              <path
                 id="path963"
                 style="font-style:normal;font-variant:normal;font-weight:normal;font-stretch:normal;font-family:'Caveat Brush';-inkscape-font-specification:'Caveat Brush';fill:#ffffff;fill-opacity:1;stroke-width:0.35005847"
                 d="m 126.80781,137.45826 q -0.014,-0.30805 -0.14002,-0.46208 -0.12602,-0.16803 -0.46208,-0.19603 -0.098,0.07 -0.26604,0.47608 -0.15403,0.39206 -0.19604,0.84014 -0.14002,0.67211 -0.14002,1.34422 0.014,0.68612 0.22404,1.00817 0.028,0.056 0.056,0.042 0.07,0 0.22403,-0.28005 0.74213,-1.34422 0.70012,-2.77246 z m 0.43407,2.67444 -0.21003,0.5461 q 0,0.028 -0.40607,0.6021 -0.12602,0.26604 -0.47608,0.29405 -0.33606,0.028 -0.65811,-0.07 -0.43407,-0.15402 -0.65811,-0.36406 -0.22404,-0.21003 -0.44807,-0.70011 -0.21004,-0.50409 -0.22404,-0.82614 -0.07,-0.46208 -0.07,-0.5881 v -0.33606 q 0,-0.50408 0.042,-0.5881 0.014,-0.056 0.07,-0.29404 0.07,-0.5881 0.33605,-1.12019 0.51809,-1.02217 1.06418,-1.05018 h 0.07 q 0.028,0.014 0.084,0.014 h 0.18203 q 0.49008,0.042 0.6021,0.084 0.21003,0.056 0.36406,0.056 l 0.36406,0.07 q 0.16803,-0.014 0.43407,0.07 0.28005,0.084 0.29405,0.12602 0.028,0.042 0.084,0.30805 0.056,0.26605 0.07,0.39207 0.028,0.11202 0.042,0.23804 0.11202,1.02217 0.36406,1.90432 0.014,0.042 0.028,0.12602 0.014,0.084 0.098,0.33606 0.084,0.23804 0.12603,0.40606 0.042,0.16803 0.15402,0.44808 0.084,0.21003 0.25204,0.49008 0.30805,0.43407 -0.32205,0.67211 -0.084,0.028 -0.29405,0.028 -0.042,0 -0.26604,-0.14003 -0.14003,0 -0.26605,-0.15402 l -0.11202,-0.028 q -0.098,-0.098 -0.16803,-0.098 -0.028,-0.028 -0.50408,-1.13419 -0.042,0.15402 -0.042,0.28004 z"
                 inkscape:connector-curvature="0" />
              <path
                 id="path965"
                 style="font-style:normal;font-variant:normal;font-weight:normal;font-stretch:normal;font-family:'Caveat Brush';-inkscape-font-specification:'Caveat Brush';fill:#ffffff;fill-opacity:1;stroke-width:0.35005847"
                 d="m 130.15437,137.48626 q -0.014,-0.16803 0.014,-0.64411 l 0.098,-0.47608 0.28004,-0.6021 0.22404,-0.28004 q 0,-0.11202 0.72812,-0.30805 h 0.014 q 0.15402,-0.014 0.47608,0.028 0.33605,0.042 0.6441,0.28005 0.30805,0.22403 0.42007,0.37806 0.29405,0.5881 0.25205,1.09218 0,0.14003 -0.14003,0.33606 -0.014,0.028 -0.21003,0.084 -0.19604,0.056 -0.32206,0.014 -0.12602,-0.056 -0.29405,-0.16803 -0.16802,-0.11202 -0.15402,-0.35006 -0.12602,-0.14002 -0.056,-0.36406 0.028,-0.16803 -0.042,-0.25204 l -0.16803,-0.07 q -0.084,0.028 -0.16802,0.25205 -0.07,0.22403 -0.07,0.54609 0,0.5881 0.29405,1.06418 0.098,0.15402 0.33606,0.36406 l 0.25204,0.30805 0.36406,0.33605 0.26605,0.36406 q 0.098,0.098 0.26604,0.43408 0.18203,0.32205 0.18203,0.5881 0,0.25204 -0.15402,0.6441 l -0.12603,0.18203 q 0,0.028 -0.15402,0.18203 -0.42007,0.42007 -0.91015,0.51809 h -0.098 q -0.44807,0.056 -0.88215,-0.014 l -0.43407,-0.11202 q -0.07,0 -0.15402,-0.056 -0.084,-0.042 -0.15403,-0.07 -0.32205,-0.21004 -0.39207,-0.33606 -0.07,-0.042 -0.098,-0.39206 -0.098,-0.21004 0.042,-0.5741 0,-0.21003 0.042,-0.32205 0.26605,-0.30805 0.68612,-0.14003 0.14002,0.056 0.14002,0.22404 0,0.042 0.042,0.29405 0.056,0.23804 0.16802,0.44808 0.11202,0.21003 0.30806,0.21003 0.19603,0 0.40606,-0.15403 0.22404,-0.43407 0.22404,-0.47608 l 0.028,-0.19603 q 0.028,-0.21003 -0.12603,-0.43407 -0.042,-0.16803 -0.19603,-0.33606 l -0.21003,-0.30805 -0.21004,-0.19603 q -0.056,-0.014 -0.35006,-0.22404 -0.014,-0.042 -0.15402,-0.19603 -0.14003,-0.15403 -0.26605,-0.37806 -0.12602,-0.23804 -0.32205,-0.42007 -0.014,-0.098 -0.18203,-0.32206 z"
                 inkscape:connector-curvature="0" />
            </g>
            <g
               id="text821-5-9"
               style="font-style:normal;font-weight:normal;font-size:7.65461683px;line-height:1.25;font-family:sans-serif;letter-spacing:0px;word-spacing:0px;fill:#ffffff;fill-opacity:1;stroke:none;stroke-width:0.19136542"
               transform="matrix(1.0066227,0.06468435,0,0.99342085,-1.6427119e-6,1.0625313e-6)"
               aria-label="que">
              <path
                 id="path968"
                 style="font-style:normal;font-variant:normal;font-weight:normal;font-stretch:normal;font-family:'Caveat Brush';-inkscape-font-specification:'Caveat Brush';fill:#ffffff;fill-opacity:1;stroke-width:0.19136542"
                 d="m 84.330772,139.91223 -0.04593,-0.008 q -0.0842,-0.0383 -0.137783,0 l -0.206674,0.12247 q -0.321494,0.35977 -0.390386,0.59706 -0.01531,0.0689 -0.06124,0.42101 -0.01531,0.32149 0.05358,0.48224 0,0.0383 0.06889,0.0689 0.09951,-0.023 0.229639,-0.20668 l 0.0842,-0.15309 q 0.153093,-0.21433 0.160747,-0.23729 0.01531,-0.0306 0.06124,-0.0765 l 0.03062,-0.10716 q 0,-0.008 0.03062,-0.0383 0.05358,-0.13013 0.145438,-0.35212 0,-0.0689 0.06124,-0.19136 0.05358,-0.0612 0.03827,-0.2526 l -0.03827,-0.0306 q -0.05358,0 -0.0842,-0.0383 z m -0.734843,-0.56644 q 0.07655,0.008 0.145438,-0.0153 0.06889,-0.023 0.19902,-0.023 0.229638,0.0153 0.336803,0.0536 0.114819,0.0383 0.114819,0.0459 l 0.191365,0.11482 q 0.06124,0.0536 0.107165,0.0153 0.122474,-0.0919 0.237293,-0.0612 0.09951,0 0.168402,0.10716 0.09186,0.0765 0.130128,0.11482 0.03827,0.0306 0.03062,0.10717 -0.0077,0.0689 -0.0077,0.72719 0.01531,0.43631 -0.0077,0.51286 -0.01531,0.0689 0.0077,0.40569 0.02296,0.13778 0.02296,0.19902 0,0.0612 -0.0077,0.11482 l 0.0077,0.30619 q -0.03062,0.34445 0.0077,0.68126 l 0.0077,0.24494 0.114819,-0.0536 q 0.221984,-0.0842 0.367422,0.34446 -0.06124,0.12247 -0.0842,0.16075 -0.0077,0.008 -0.130128,0.2526 0,0.0306 -0.04593,0.0918 -0.137783,0.17606 -0.336803,0.18372 -0.191366,0.008 -0.329149,-0.0459 -0.03827,0 -0.05358,-0.0383 l -0.114819,-0.19902 v -0.0153 l -0.0077,-0.0689 q -0.05358,-0.0153 -0.06124,-0.0842 -0.0077,-0.023 -0.0077,-0.0459 v -0.0383 q -0.06889,-0.19136 -0.04593,-0.26791 0.03827,-0.14544 -0.02296,-0.26026 -0.05358,-0.11482 -0.05358,-0.20667 0,-0.0842 0.02296,-0.16075 0.03062,-0.0689 0.01531,-0.13778 v -0.0842 l -0.02296,-0.22199 q -0.0842,-0.13778 -0.0077,-0.3368 v -0.13778 l 0.0077,-0.10717 v -0.0459 l -0.06124,0.11481 -0.321494,0.45928 q -0.06889,0.0689 -0.09186,0.0842 -0.02296,0.008 -0.160747,-0.008 -0.137783,-0.0153 -0.183711,-0.0459 -0.03062,0 -0.160747,-0.0383 -0.09951,0 -0.176056,-0.0383 -0.07655,-0.0459 -0.09951,-0.0536 -0.03827,-0.0153 -0.160747,-0.0842 -0.09951,0 -0.183711,-0.18371 l -0.03827,-0.0689 q -0.05358,-0.0459 -0.05358,-0.13013 -0.03062,-0.0306 -0.03827,-0.16075 -0.02296,-0.023 -0.0077,-0.0919 -0.01531,-0.12248 -0.01531,-0.43632 0,-0.32149 0.09951,-0.69657 0,-0.13012 0.176056,-0.32914 l 0.03062,-0.0383 q 0.02296,-0.0765 0.168402,-0.17605 0.05358,-0.0612 0.229639,-0.13013 z"
                 inkscape:connector-curvature="0" />
              <path
                 id="path970"
                 style="font-style:normal;font-variant:normal;font-weight:normal;font-stretch:normal;font-family:'Caveat Brush';-inkscape-font-specification:'Caveat Brush';fill:#ffffff;fill-opacity:1;stroke-width:0.19136542"
                 d="m 88.609701,140.28731 0.0077,0.14544 q 0,0.023 0.04593,0.48224 v 0.0919 q 0,0.18371 0.06124,0.55114 0,0.16074 0.160747,0.55878 0.03827,0.023 0.05358,0.10717 l -0.0077,0.0765 q 0.01531,0.0383 -0.03827,0.0842 0,0.0536 -0.145438,0.0536 -0.145438,0 -0.183711,0.0153 -0.03827,0.0153 -0.122474,-0.0153 -0.03062,0.0153 -0.183711,-0.0612 -0.06889,-0.0153 -0.107164,-0.13778 l -0.06124,-0.14544 q 0,-0.13778 -0.07655,-0.24495 0,-0.0383 -0.03827,-0.13778 -0.03062,-0.0995 -0.04593,-0.10717 -0.07655,0.30619 -0.191366,0.47459 0,0.0383 -0.04593,0.0919 l -0.07655,0.14543 q 0,0.0153 -0.06889,0.0842 -0.04593,0.0995 -0.206675,0.0995 -0.145437,0 -0.352112,-0.0765 -0.05358,-0.008 -0.214329,-0.0689 -0.04593,0.008 -0.145438,-0.023 -0.09185,-0.0383 -0.107165,-0.0383 -0.02296,-0.023 -0.107164,-0.0765 l -0.130129,-0.13778 q -0.0077,-0.008 -0.03062,-0.0689 -0.01531,-0.0689 -0.0077,-0.0919 0.0077,-0.0306 0,-0.0842 -0.0077,-0.0536 0.0077,-0.10716 0,-0.15309 0.03062,-0.33681 -0.0077,-0.023 -0.0077,-0.0536 0,-0.0306 0.03062,-0.11482 -0.0077,-0.0383 -0.0077,-0.0536 l 0.03827,-0.29853 q 0,-0.10716 0.0077,-0.15309 v -0.11482 q 0.0077,-0.0306 0.0077,-0.0842 l 0.03827,-0.36742 q 0,-0.0842 0.0077,-0.10717 v -0.0765 q 0.01531,-0.0153 0.01531,-0.12248 l 0.06889,-0.21433 0.05358,-0.0918 q 0.0077,-0.0306 0.0842,-0.0689 0.122474,-0.0765 0.352113,-0.0765 0.09185,0.0153 0.19902,0.0765 0.02296,-0.008 0.107164,0.0306 0.153093,0.0689 0.01531,0.39039 -0.03062,0.20667 -0.03062,0.21433 -0.03062,0.0612 -0.03062,0.0995 -0.04593,0.24495 -0.04593,0.26026 0.03062,-0.0306 -0.02296,0.0918 l -0.03062,0.28322 q -0.05358,0.18371 -0.04593,0.4057 l -0.03062,0.0995 q 0.0077,0.0383 -0.0077,0.23729 0.01531,0.023 0.01531,0.0536 l 0.0077,0.0612 q -0.0077,0.023 0.0077,0.0459 0.01531,0.0153 0.0842,0.0153 0.07655,-0.008 0.130129,-0.0383 0.107164,-0.13013 0.145437,-0.26791 0.03827,-0.14544 0.03827,-0.1684 0.130129,-0.32915 0.160747,-0.38273 0.03827,-0.20668 0.130129,-0.47459 -0.01531,-0.0383 0,-0.15309 l 0.09951,-0.40569 q 0.06889,-0.11482 0.06889,-0.13779 0,-0.0306 0.09186,-0.21433 0,-0.0306 0.04593,-0.12247 0.05358,-0.0842 0.191365,-0.16075 h 0.02296 q 0.168401,-0.0153 0.290875,0.0459 0.01531,0.0306 0.01531,0.10716 0.01531,0.0765 0.03062,0.27557 v 0.0765 l -0.03062,0.1684 q 0.06124,0.19136 0.01531,0.38273 z"
                 inkscape:connector-curvature="0" />
              <path
                 id="path972"
                 style="font-style:normal;font-variant:normal;font-weight:normal;font-stretch:normal;font-family:'Caveat Brush';-inkscape-font-specification:'Caveat Brush';fill:#ffffff;fill-opacity:1;stroke-width:0.19136542"
                 d="m 90.913734,139.59839 q -0.01531,-0.0383 -0.107165,-0.0306 -0.0842,0.008 -0.130128,0.0918 -0.313839,0.49755 -0.336803,1.06399 0.260257,0.0612 0.443968,-0.22964 0.237293,-0.75015 0.130128,-0.89559 z m -0.59706,3.03889 -0.07655,-0.0153 -0.107165,-0.10717 q -0.04593,0 -0.06889,-0.0383 -0.0842,-0.0995 -0.306185,-0.39804 l -0.114819,-0.421 q 0,-0.12248 -0.04593,-0.21433 -0.07655,-0.34446 -0.09186,-0.39039 -0.01531,-0.0536 -0.02296,-0.28322 0,-0.22964 0.02296,-0.3368 0.02296,-0.14544 0.283221,-0.71954 0.06889,-0.0689 0.0842,-0.18371 l 0.122474,-0.17605 q 0.168402,-0.19902 0.359767,-0.29088 0,-0.0153 0.260257,-0.0765 0.05358,-0.008 0.244948,0.0383 0.459277,0.10716 0.574096,0.26791 l 0.02296,0.0383 q 0.145438,0.20668 0.168401,0.63534 -0.02296,0.19136 -0.03827,0.32149 -0.01531,0.13013 -0.168401,0.47459 -0.11482,0.21433 -0.221984,0.34445 -0.168402,0.12248 -0.229639,0.12248 -0.03062,0.0153 -0.130128,0.0153 h -0.176056 q -0.02296,-0.008 -0.09951,-0.008 -0.07655,0 -0.221984,-0.0383 0,0.1684 0.09186,0.48224 0.09951,0.30618 0.160747,0.37508 0.160747,0.12247 0.252602,0.16074 0.09186,0.0383 0.244948,0.0153 0.153093,-0.0306 0.221984,-0.10716 l 0.19902,-0.24495 q 0.191366,-0.26026 0.390386,-0.0459 0.09186,0.0995 0.06889,0.19902 -0.01531,0.0919 -0.153092,0.37508 -0.114819,0.18371 -0.244948,0.30618 -0.237293,0.12248 -0.283221,0.12248 -0.06889,0.008 -0.214329,-0.023 -0.07655,0.0383 -0.260257,-0.008 0,-0.0153 -0.04593,-0.023 -0.03827,0 -0.107164,-0.023 l 0.01531,-0.008 q -0.01531,0 -0.09186,0 l -0.214329,-0.11482 z"
                 inkscape:connector-curvature="0" />
            </g>
            <g
               id="text829-5-6"
               style="font-style:normal;font-weight:normal;font-size:13.77767658px;line-height:1.25;font-family:sans-serif;letter-spacing:0px;word-spacing:0px;fill:#ffffff;fill-opacity:1;stroke:none;stroke-width:0.34444192"
               aria-label="no vemos"
               transform="matrix(1.0066227,0,0,0.99342085,-1.6427119e-6,1.0625313e-6)">
              <path
                 id="path975"
                 style="font-style:normal;font-variant:normal;font-weight:normal;font-stretch:normal;font-family:'Caveat Brush';-inkscape-font-specification:'Caveat Brush';fill:#ffffff;fill-opacity:1;stroke-width:0.34444192"
                 d="m 96.583557,148.92687 -0.08267,-0.23422 -0.151555,-0.9231 q -0.06889,-0.26178 -0.06889,-0.46844 l 0.05511,-0.60622 q 0,-0.15156 0.01378,-0.16533 -0.165332,0 -0.495996,0.39955 -0.02756,0.0413 -0.08267,0.13778 -0.578663,0.9231 -0.688884,2.2182 -0.110222,0.23422 -0.289331,0.23422 -0.371998,-0.0827 -0.413331,-0.0827 l -0.09644,0.0138 h -0.17911 q -0.316887,-0.0276 -0.41333,-0.24799 -0.05511,-0.0689 -0.05511,-0.35822 v -0.19289 l -0.04133,-0.75777 v -1.12977 q 0,-0.19289 -0.02756,-0.48222 -0.02755,-0.31689 -0.01378,-0.992 0.01378,-0.68888 -0.01378,-0.73021 -0.02756,-0.0551 -0.02756,-0.13778 0,-0.0827 0.04133,-0.16533 0.04133,-0.0827 0.371997,-0.17911 0.17911,-0.11022 0.303109,-0.11022 0.192887,0.0413 0.495996,0.16533 0.206665,0.0413 0.206665,0.39955 0.02756,0.59244 0,0.85422 -0.01378,0.26177 0.01378,1.06088 1.019548,-1.95643 1.818653,-2.35598 0.06889,-0.0689 0.206666,-0.0689 0.137776,0 0.316886,0.13778 0.17911,0.13777 0.247998,0.17911 0.06889,0.0413 0.151555,0.13777 0.09644,0.0965 0.151554,0.124 0.165332,0.27555 0.06889,1.2951 -0.01378,0.15156 -0.02756,0.27556 -0.01378,0.11022 -0.01378,0.49599 0,0.38578 0.01378,0.53733 0.04133,0.48222 0.04133,0.56489 l 0.06889,0.52355 q 0.137776,0.31688 0.137776,0.49599 0.01378,0.16534 0.247999,0.53733 0.09644,0.20667 -0.08267,0.33067 -0.275554,0.13778 -0.303109,0.11022 -0.01378,-0.0138 -0.151555,0.0276 -0.137777,0.0551 -0.495996,0.0275 -0.17911,-0.0413 -0.35822,-0.22044 l -0.206665,-0.20667 q -0.110221,-0.16533 -0.151554,-0.35822 -0.06889,-0.0689 -0.04133,-0.11022 z"
                 inkscape:connector-curvature="0" />
              <path
                 id="path977"
                 style="font-style:normal;font-variant:normal;font-weight:normal;font-stretch:normal;font-family:'Caveat Brush';-inkscape-font-specification:'Caveat Brush';fill:#ffffff;fill-opacity:1;stroke-width:0.34444192"
                 d="m 101.98438,145.37223 q -0.0964,-0.55111 -0.53733,-0.50977 -0.24799,0.0138 -0.4271,0.33066 -0.248,0.48222 -0.22045,1.25377 0.0413,0.75777 0.11022,1.10221 0.0827,0.33067 0.27556,0.57867 0.11022,0.19288 0.33066,0.17911 0.38578,0 0.56489,-0.64755 l 0.11022,-0.33067 q 0.0689,-0.0689 0.0275,-0.13778 0.13778,-0.34444 0.15156,-0.81288 -0.13778,-0.0964 -0.16533,-0.17911 -0.0827,-0.23422 -0.0827,-0.31689 -0.0964,-0.0689 -0.11022,-0.26177 -0.0138,-0.19289 -0.0276,-0.248 z m -2.521312,1.2951 0.05511,-0.70266 q 0.09644,-0.95066 0.578662,-1.62576 0.46844,-0.56489 1.32266,-0.57867 h 0.0827 q 0.79911,0 1.15733,0.34444 0.38577,0.30311 0.56488,0.66133 0.19289,0.35822 0.248,0.52355 0.0551,0.16534 0.0689,0.48222 0.0276,0.59244 -0.23422,0.67511 0.19289,1.30888 -0.23422,2.08043 -0.13778,0.31689 -0.39955,0.68888 -0.19289,0.248 -0.68889,0.27556 -0.49599,0 -0.86799,-0.0551 -0.35822,-0.0551 -0.79911,-0.34445 -0.440882,-0.30311 -0.619992,-0.97821 -0.192888,-0.64755 -0.234221,-1.44666 z"
                 inkscape:connector-curvature="0" />
              <path
                 id="path979"
                 style="font-style:normal;font-variant:normal;font-weight:normal;font-stretch:normal;font-family:'Caveat Brush';-inkscape-font-specification:'Caveat Brush';fill:#ffffff;fill-opacity:1;stroke-width:0.34444192"
                 d="m 107.93633,143.33313 0.63377,0.0413 q 0.0689,0 0.33067,0.13777 l 0.0276,0.20667 q 0.0689,0.15155 0.0689,0.26178 0,0.11022 0.0276,0.27555 0.13777,0.372 0.22044,0.95066 0.0964,0.57866 0.13778,0.7991 0.0413,0.22045 0.0689,0.35822 0.0276,0.13778 -0.0138,0.22045 0.0413,0.0413 0.0827,0.23422 0.0413,0.19288 0.0965,0.26177 l 0.33066,1.44666 q 0.0413,0.248 0.16533,0.27555 l 0.124,-0.13777 q 0.0689,-0.0827 0.13778,-0.35822 0.0689,-0.27556 0.0689,-0.50978 0,-0.23422 0.0413,-0.39955 l 0.17911,-1.36399 q 0.0276,-0.28933 0,-0.56489 v -0.39955 l 0.0138,-0.33066 v -0.35822 q 0,-0.124 0.11022,-0.26178 l 0.0276,-0.19289 q 0.0276,-0.23422 0.30311,-0.24799 0.41333,0.0689 0.64755,0.20666 0.16534,0.124 0.30311,0.30311 v 0.23422 q 0.0551,0.60622 -0.0276,1.14355 l -0.0827,0.50977 q -0.15155,0.52355 -0.16533,0.90933 -0.372,1.57065 -0.372,1.6671 0,0.17911 -0.11022,0.33066 0,0.0413 -0.0689,0.22045 -0.0413,0.3031 -0.124,0.38577 0,0.0138 -0.11022,0.15155 -0.11022,0.15156 -0.13777,0.17911 -0.88178,0.13778 -1.04711,0.13778 -0.15155,0.0138 -0.44088,-0.124 -0.56489,-0.27555 -0.73022,-0.7991 -0.0413,-0.17911 -0.15156,-0.28933 -0.11022,-0.124 -0.13777,-0.23423 -0.0138,-0.11022 -0.0413,-0.19288 -0.0276,-0.0965 -0.0551,-0.17911 -0.0689,-0.22045 -0.13777,-0.38578 0,0.0551 -0.0138,0.0138 -0.0138,-0.0413 -0.0276,-0.0689 0,-0.0413 -0.0276,-0.13777 -0.0276,-0.0965 -0.0276,-0.20667 -0.5511,-2.93465 -0.56488,-3.03109 -0.0138,-0.0964 -0.0138,-0.30311 v -0.31688 q 0,-0.19289 0.16533,-0.38578 h -0.0138 q 0.0413,-0.0689 0.33066,-0.0827 z"
                 inkscape:connector-curvature="0" />
              <path
                 id="path981"
                 style="font-style:normal;font-variant:normal;font-weight:normal;font-stretch:normal;font-family:'Caveat Brush';-inkscape-font-specification:'Caveat Brush';fill:#ffffff;fill-opacity:1;stroke-width:0.34444192"
                 d="m 115.7758,144.38024 q -0.0276,-0.0689 -0.19288,-0.0551 -0.15156,0.0138 -0.23422,0.16533 -0.56489,0.89555 -0.60622,1.9151 0.46844,0.11022 0.7991,-0.41333 0.42711,-1.35022 0.23422,-1.61199 z m -1.07466,5.46974 -0.13777,-0.0276 -0.19289,-0.19289 q -0.0827,0 -0.124,-0.0689 -0.15155,-0.17911 -0.55111,-0.71643 l -0.20666,-0.75778 q 0,-0.22044 -0.0827,-0.38577 -0.13777,-0.62 -0.16533,-0.70266 -0.0276,-0.0965 -0.0413,-0.50978 0,-0.41333 0.0413,-0.60622 0.0413,-0.26177 0.50977,-1.2951 0.124,-0.124 0.15156,-0.33066 l 0.22044,-0.31689 q 0.30311,-0.35822 0.64755,-0.52355 0,-0.0275 0.46844,-0.13778 0.0964,-0.0138 0.44089,0.0689 0.82666,0.19289 1.03333,0.48222 l 0.0413,0.0689 q 0.26177,0.372 0.30311,1.14355 -0.0413,0.34444 -0.0689,0.57866 -0.0276,0.23422 -0.30311,0.85422 -0.20667,0.38577 -0.39955,0.61999 -0.30311,0.22044 -0.41333,0.22044 -0.0551,0.0276 -0.23422,0.0276 h -0.31689 q -0.0413,-0.0138 -0.17911,-0.0138 -0.13778,0 -0.39955,-0.0689 0,0.30311 0.16533,0.868 0.17911,0.5511 0.28933,0.6751 0.28933,0.22045 0.45466,0.28933 0.16534,0.0689 0.44089,0.0276 0.27555,-0.0551 0.39955,-0.19289 l 0.35822,-0.44088 q 0.34444,-0.46845 0.70266,-0.0827 0.16534,0.17911 0.124,0.35822 -0.0276,0.16533 -0.27555,0.67511 -0.20667,0.33066 -0.44089,0.5511 -0.4271,0.22045 -0.50977,0.22045 -0.124,0.0138 -0.38578,-0.0413 -0.13777,0.0689 -0.46844,-0.0138 0,-0.0275 -0.0827,-0.0413 -0.0689,0 -0.19289,-0.0413 l 0.0276,-0.0138 q -0.0276,0 -0.16534,0 l -0.38577,-0.20666 z"
                 inkscape:connector-curvature="0" />
              <path
                 id="path983"
                 style="font-style:normal;font-variant:normal;font-weight:normal;font-stretch:normal;font-family:'Caveat Brush';-inkscape-font-specification:'Caveat Brush';fill:#ffffff;fill-opacity:1;stroke-width:0.34444192"
                 d="m 118.614,145.5789 0.15155,-0.70267 0.0138,-0.3031 q 0.0276,-0.0138 0.0689,-0.17911 0.0689,-0.50978 0.56488,-0.50978 0.26178,0.0138 0.56489,0.15156 0.11022,0 0.16533,0.0964 0.0689,0.0138 0.124,0.0827 0.0551,0.0689 0.0138,0.19288 -0.0413,0.11022 -0.0551,0.19289 0,0.0689 -0.0689,0.48222 -0.19289,1.03333 -0.16534,1.39155 l 0.744,-1.12977 0.27555,-0.496 q 0.23422,-0.124 0.42711,-0.16533 0.0964,0 0.22044,0.0413 0.39956,0.0551 0.39956,0.11022 l 0.16533,0.11022 q 0.16533,0.19289 0.16533,0.31689 0.0138,0.124 -0.0276,0.248 -0.0276,0.11022 -0.0827,0.28933 0,0.0138 -0.28933,1.57065 l 0.5511,-1.18488 0.13778,-0.17911 q 0,-0.124 0.27556,-0.52355 l 0.13777,-0.248 q 0,-0.0413 0.0965,-0.13777 0.0413,0 0.0827,-0.124 0.17911,-0.27556 0.33067,-0.34444 0.23422,-0.0827 0.57866,-0.0276 l 0.17911,0.0827 q 0.0551,0.11022 0.0827,0.124 h 0.0413 q 0.16533,0.15155 0.124,0.34444 -0.0551,0.26177 -0.0551,0.34444 l -0.15156,1.07466 q -0.0276,0.0276 -0.0276,0.0827 -0.0276,0.0276 -0.0827,0.744 -0.0413,0.71644 -0.0413,1.40532 l 0.0138,0.16533 0.0689,0.23423 0.0965,0.22044 q 0.0276,0.16533 -0.0827,0.27555 -0.0964,0.124 -0.248,0.124 -0.93688,-0.0275 -1.01955,-0.59244 -0.0413,-0.0689 -0.0413,-0.15155 0,-0.0827 -0.0551,-0.248 v -0.15156 l 0.0276,-0.20666 q -0.0413,0 -0.0413,-0.44089 0,-0.45466 0.0276,-0.52355 0.0551,-0.23422 0.0551,-0.496 -0.0413,0.0551 -0.13778,0.16534 -0.19289,0.22044 -0.248,0.33066 l -0.26177,0.55111 q -0.30311,0.68888 -0.45467,0.88177 -0.15155,0.19289 -0.49599,0.17911 -0.34444,-0.0138 -0.42711,-0.0964 -0.11022,-0.0551 -0.17911,-0.0827 -0.0551,-0.0413 -0.0413,-0.31689 v -0.13777 l 0.17911,-1.12977 q 0.0827,-0.30311 0.0827,-0.35822 l 0.0551,-0.33067 v -0.26177 l -0.13777,0.19288 -0.124,0.248 q -0.0551,0.0551 -0.0551,0.13778 -0.0689,0.0413 -0.11022,0.15155 l -0.53733,1.08844 q -0.23422,0.48222 -0.26178,0.73022 -0.0827,0.13777 -0.20666,0.31688 -0.11023,0.17911 -0.248,0.16534 -0.124,-0.0276 -0.17911,-0.0689 -0.0551,-0.0413 -0.0413,-0.11022 -0.16533,0.0689 -0.26177,-0.11023 l -0.33067,-0.4271 q -0.0551,-0.0413 -0.0551,-0.15156 0.0413,-0.16533 0,-0.27555 -0.0413,-0.11022 -0.0276,-0.17911 -0.0276,-0.124 -0.0276,-0.34444 0,-0.26178 -0.0413,-0.38578 0,-0.11022 0.0276,-0.22044 v -0.13778 q -0.0276,-0.60622 0.0827,-0.71644 -0.0827,-0.124 0.0138,-0.56488 z"
                 inkscape:connector-curvature="0" />
              <path
                 id="path985"
                 style="font-style:normal;font-variant:normal;font-weight:normal;font-stretch:normal;font-family:'Caveat Brush';-inkscape-font-specification:'Caveat Brush';fill:#ffffff;fill-opacity:1;stroke-width:0.34444192"
                 d="m 127.15614,147.03933 q -0.0689,0.48222 -0.0689,0.89555 0,0.41333 0.0551,0.57866 0.0138,0.124 0.0551,0.16533 0.0689,0.0276 0.19289,0 0.19289,-0.0827 0.19289,-0.17911 0.39955,-0.38577 0.45466,-0.50977 0.0551,-0.124 0.0827,-0.15155 0.0551,-0.0689 0.0689,-0.17911 0.0689,-0.0689 0.0827,-0.0965 -0.0138,-0.0413 0.0551,-0.23422 -0.0551,-0.0964 0,-0.13778 0.0689,-0.0551 0.0689,-0.28933 l 0.0551,-0.44088 q 0,-0.0827 0.0138,-0.124 -0.0138,-0.0551 0,-0.16533 0.0275,-0.124 0.0138,-0.38578 -0.0138,-0.26177 -0.0964,-0.34444 l -0.0275,-0.0827 q -0.0276,-0.0964 -0.22045,-0.13777 l -0.11022,-0.0551 q 0.0413,0.0827 -0.0827,0.22044 -0.53733,0.73022 -0.78533,1.65332 z m -0.95066,-1.47421 q 0.0138,-0.11022 0.0827,-0.20667 l -0.0138,-0.0827 q 0.0551,-0.19289 0.0689,-0.22045 0.0138,-0.0275 0.0413,0 -0.0138,-0.0551 0.0138,-0.0827 0.0413,-0.124 0.12399,-0.28933 0.0964,-0.16534 0.11023,-0.20667 0.0827,-0.23422 0.26177,-0.30311 0,-0.11022 0.38578,-0.15155 0.44088,-0.15156 0.71644,-0.0551 0.13777,-0.0827 0.41333,0.0689 0.20666,0.0827 0.44088,0.24799 0.20667,0.13778 0.34444,0.30311 0.19289,0.0827 0.248,0.27556 0.38578,0.9231 0.38578,1.62576 l -0.0276,0.15156 q 0,0.19288 -0.0413,0.248 -0.0276,0.0413 -0.0276,0.13777 0.0276,0.0138 0,0.124 0,0.0689 -0.22044,0.89555 l -0.22044,0.45466 q 0,0.0276 -0.0689,0.0965 v 0.0827 q 0,0.0276 -0.0689,0.11022 -0.13778,0.27556 -0.27555,0.41334 -0.22045,0.35821 -0.372,0.52355 l -0.11022,0.15155 -0.16533,-0.0138 q -0.0413,0.0689 -0.0827,0.0689 -0.0276,0 -0.19289,-0.0551 l 0.11022,-0.0138 q -0.11022,0.0138 -0.17911,-0.0138 -0.0551,-0.0276 -0.11022,-0.0276 -0.26177,-0.13778 -0.37199,-0.0964 -0.0551,0 -0.41333,-0.11022 l -0.38578,-0.0689 -0.30311,-0.11022 q -0.124,-0.0689 -0.23422,-0.16534 -0.0413,-0.0827 -0.0413,-0.13777 l -0.0827,-0.27556 q 0,-0.0275 -0.0276,-0.13777 v -0.35822 q 0.0276,-0.13778 0.0276,-0.26178 -0.0276,-0.0689 0,-0.28933 v -0.15155 q 0,-0.0413 0.0138,-0.15156 -0.0138,-0.0689 0.0138,-0.30311 0.0276,-0.23422 0.0276,-0.42711 0,-0.17911 0.0551,-0.49599 0.0413,-0.0965 0.0551,-0.34444 0.0138,-0.26178 0.0964,-0.372 z"
                 inkscape:connector-curvature="0" />
              <path
                 id="path987"
                 style="font-style:normal;font-variant:normal;font-weight:normal;font-stretch:normal;font-family:'Caveat Brush';-inkscape-font-specification:'Caveat Brush';fill:#ffffff;fill-opacity:1;stroke-width:0.34444192"
                 d="m 131.42721,144.09091 q 0.372,-0.45467 1.01955,-0.48222 1.06088,-0.0413 1.57065,0.52355 0.52355,0.56488 0.55111,1.11599 0.0413,0.55111 -0.27555,0.59244 -0.45467,0.0138 -0.59244,-0.124 -0.124,0.0138 -0.31689,-0.17911 -0.0827,-0.0413 -0.22044,-0.31688 l -0.15156,-0.34445 q -0.11022,-0.24799 -0.27555,-0.27555 -0.20667,0.0827 -0.20667,0.41333 0.0551,0.64755 0.62,1.23999 0,0 0.0138,0.0413 0.0276,0.0275 0.20666,0.22044 1.08844,1.19866 1.12977,1.92887 0,0.46844 -0.19289,0.62 -0.59244,0.70266 -1.5431,0.73022 -0.95066,0.0275 -1.57065,-0.59244 -0.16533,-0.16534 -0.16533,-0.31689 -0.0827,-0.26178 -0.0551,-0.34444 -0.0413,-0.38578 0,-0.57867 0.0827,-0.44088 0.64755,-0.45466 0.20666,0 0.26177,0.248 0.17911,0.70266 0.33067,0.9231 0.16533,0.22045 0.52355,0.20667 0.45466,-0.0276 0.42711,-0.50978 -0.0138,-0.48221 -0.45467,-0.89554 -0.13777,-0.16534 -0.27555,-0.248 -0.124,-0.0965 -0.16533,-0.13778 -0.0138,-0.0413 -0.0689,-0.0827 -0.27555,-0.22044 -0.70266,-0.73021 -0.41333,-0.50978 -0.44089,-0.95066 -0.0551,-0.78533 0.372,-1.23999 z"
                 inkscape:connector-curvature="0" />
            </g>
            <path
               id="path990"
               style="font-style:normal;font-variant:normal;font-weight:normal;font-stretch:normal;font-family:'Caveat Brush';-inkscape-font-specification:'Caveat Brush';fill:#ffffff;fill-opacity:1;stroke-width:0.36100987"
               d="m 85.818692,137.4 q 0.649817,-0.0866 0.678698,-0.10108 0.04332,-0.0289 0.08664,-0.0433 0.129963,-0.0289 0.346569,-0.15885 0.0722,-0.0144 0.187725,-0.0722 0.115523,-0.0578 0.288808,-0.10108 0.187725,-0.0433 0.259927,-0.0867 0.0722,-0.0433 0.288808,-0.11552 0.02888,-0.0289 0.144404,-0.37545 0.115523,-0.36101 0.144404,-0.41877 l -0.129964,-0.0866 q -0.202165,0 -0.837542,0.11552 -0.08664,0.0433 -0.996388,0.18773 -0.303248,0.69313 -0.303248,0.80866 0,0.11552 -0.158844,0.44765 z m -3.27797,0.83754 q 0,-0.11552 0.173285,-0.17328 0,-0.0289 0.202165,-0.0866 0.664258,-0.14441 0.678699,-0.18773 0.05776,-0.0289 0.851983,-0.24549 0.115523,-0.0433 0.158844,-0.11552 0.05776,-0.0722 0.245487,-0.49097 0.101083,-0.11553 0.101083,-0.21661 0.01444,-0.10108 -0.05776,-0.10108 -0.05776,0 -0.606496,0.1444 -0.548735,0.12997 -1.025268,0.12997 -0.476533,0 -0.534295,-0.28881 -0.0722,-0.0578 -0.0722,-0.24549 0,-0.20216 0.0722,-0.27437 0.0722,-0.0722 0.418771,-0.11552 l 0.981947,-0.24549 q 0.736461,-0.27436 0.895305,-0.34657 0.158844,-0.0866 0.187725,-0.10108 0.04332,-0.0144 0.129964,-0.0578 0.101082,-0.0433 0.202165,-0.0866 0.01444,-0.0722 0.216606,-0.6787 0.202166,-0.6065 0.259927,-0.80866 0.05776,-0.11553 0.173285,-0.20217 0.332129,-0.92418 0.346569,-0.93862 0.02888,-0.0289 0.129964,-0.27437 0.144404,-0.43321 0.404331,-0.5343 0.216606,0 0.332129,0.10109 0.101083,0.0578 0.274368,0.24548 0.173284,0.18773 0.158844,0.30325 0,0.10108 -0.245487,0.43321 -0.04332,0.12997 -0.129963,0.40433 -0.08664,0.25993 -0.129964,0.34657 -0.05776,0.14441 -0.202165,0.66426 -0.317689,0.46209 -0.317689,0.66426 0.05776,0.0289 0.231046,0 0.187725,-0.0289 0.216606,-0.0722 0.0722,0 0.216606,-0.10108 0.05776,0 0.129964,-0.0433 0.08664,-0.0578 0.101082,-0.0866 0.245487,-0.0433 0.259928,-0.0578 0.664258,-0.0866 0.779781,-0.38989 0,-0.23105 0.115523,-0.46209 0.115523,-0.23105 0.101083,-0.27437 0,-0.0433 0.08664,-0.36101 0.144404,-0.38989 0.173285,-0.54874 0.04332,-0.15884 0.115523,-0.20216 0.08664,-0.14441 0.08664,-0.23105 0.05776,-0.1444 0.187726,-0.23104 0.346569,-0.17329 0.592056,0 0.115523,0.0578 0.274367,0.20216 0.0722,0 0.303249,0.18773 l 0.158844,0.33213 q -0.02888,0.0289 -0.0722,0.12996 -0.02888,0.10108 -0.05776,0.15884 -0.02888,0.0433 -0.158844,0.36101 -0.288808,0.76534 -0.231046,0.77979 l 0.73646,-0.12997 0.216606,0.0866 q 0.592056,0.24549 0.678698,0.92419 0.0722,0.20216 -0.0722,0.27437 -0.08664,-0.10109 -0.693139,0.0289 l -1.501801,0.24548 q -0.317688,1.213 -0.303248,1.22744 0.620937,0 1.039709,-0.0289 0.303248,-0.0578 0.678698,0.18772 0.187725,0.18773 0.231046,0.5343 0.04332,0.34657 -0.05776,0.54873 -0.332129,0 -0.953066,0.14441 -1.06859,0.11552 -1.212993,0.11552 -0.144404,0 -0.158845,0.0289 0,0.0144 -0.433212,1.45848 -0.259927,1.19855 -0.288808,1.4296 -0.02888,0.2166 -0.0722,0.31769 -0.04332,0.10108 -0.202165,0.10108 -0.144404,0 -0.34657,-0.0433 -0.187725,-0.0289 -0.317688,-0.0722 -0.129964,-0.0433 -0.129964,-0.0722 0,-0.0289 -0.202165,-0.10109 0,-0.0144 -0.115524,-0.36101 -0.01444,-0.0578 0.01444,-0.33213 -0.02888,-0.44765 0.115523,-0.80866 0.115523,-0.0289 0.115523,-0.28881 0.05776,-0.33213 0.115523,-0.44765 0.05776,-0.12996 0.04332,-0.27437 -0.01444,-0.1444 -0.101083,-0.1444 -0.08664,0 -0.404331,0.0866 -0.303249,0.0866 -0.548735,0.14441 -0.563176,0.12996 -0.635378,0.12996 -0.187725,0.0289 -0.245486,0.0866 -0.04332,0.0433 -0.08664,0.25993 -0.04332,0.2166 -0.144404,0.53429 0,0.0578 -0.08664,0.37545 -0.08664,0.50542 -0.259927,0.86643 l -0.02888,0.20216 q 0,0.0289 -0.04332,0.10109 -0.02888,0.0722 -0.0722,0.1444 -0.04332,0.0866 -0.158845,0.0866 -0.101082,0 -0.245486,-0.0578 -0.129964,-0.0433 -0.231047,-0.0144 -0.01444,-0.0144 -0.05776,-0.0289 -0.129964,-0.0722 -0.245487,-0.18773 -0.04332,0 -0.158844,-0.1444 -0.202166,-0.21661 -0.01444,-0.70758 0.129964,-0.40433 0.115524,-0.47653 0.02888,-0.0722 0.187725,-0.64982 0.02888,-0.0289 -0.404331,0.0433 -0.433212,0.0722 -0.447653,0.0722 -0.202165,0 -0.404331,-0.36101 -0.129963,-0.25992 -0.129963,-0.34657 -0.01444,-0.0866 0.05776,-0.20216 z"
               inkscape:connector-curvature="0" />
          </g>
        </g>
      </g>
    </g>
  </g>
</svg>
